<?xml version="1.0" encoding="utf-8"?>
<!-- Generator: Adobe Illustrator 25.4.1, SVG Export Plug-In . SVG Version: 6.00 Build 0)  -->
<svg version="1.1" id="Layer_1" xmlns="http://www.w3.org/2000/svg" xmlns:xlink="http://www.w3.org/1999/xlink" x="0px" y="0px"
	 viewBox="0 0 105.64 152.61" style="enable-background:new 0 0 105.64 152.61;" xml:space="preserve">
<style type="text/css">
	.st0{enable-background:new    ;}
	.st1{fill:#161615;}
	.st2{fill:#EB7C63;}
	.st3{fill:none;stroke:#FFFFFF;stroke-width:2.4844;stroke-miterlimit:10;}
</style>
<g class="st0">
	<path class="st1" d="M2.19,132.28H0v-0.78h5.72v0.78H3.06l4.09,12.67l3.89-11.07l-0.56-1.61H8.29v-0.78h5.69v0.78h-2.65l4.45,12.67
		l4.09-12.67h-2.65v-0.78h5.72v0.78h-2.19l-4.57,14.03h-0.73l-3.96-11.21l-3.99,11.21H6.76L2.19,132.28z"/>
	<path class="st1" d="M22.13,145.54h2.21l5.35-13.26h-2.31v-0.78h3.67l5.64,14.03h2.21v0.78h-5.76v-0.78h2.65l-1.78-4.38h-7.03
		l-1.75,4.38h2.65v0.78h-5.76V145.54z M33.71,140.36l-3.19-8l-3.21,8H33.71z"/>
	<path class="st1" d="M40.51,145.54h2.51v-13.26h-2.51v-0.78h6.1v0.78h-2.72v13.26h7.54v-3.14h0.83v3.92H40.51V145.54z"/>
	<path class="st1" d="M54.62,145.54h2.51v-13.26h-2.51v-0.78h6.1v0.78H58v13.26h7.54v-3.14h0.83v3.92H54.62V145.54z"/>
	<path class="st1" d="M76.82,141.57v-9.29h-2.51v-0.78h5.89v0.78H77.7v9.27c0,3.06,2.21,4.26,4.62,4.26c2.48,0,4.52-1.26,4.52-4.26
		v-9.27h-2.51v-0.78h5.84v0.78h-2.5v9.32c0,3.31-2.21,5.01-5.35,5.01C79.06,146.61,76.82,144.76,76.82,141.57z"/>
	<path class="st1" d="M92.46,145.54h2.51v-13.26h-2.51v-0.78h6.32c2.07,0,5.64,0.68,5.64,4.48c0,3.79-3.58,4.48-5.64,4.48h-2.94
		v5.08h2.94v0.78h-6.32V145.54z M95.84,139.67h2.94c3.11,0,4.74-1.36,4.74-3.7s-1.63-3.7-4.74-3.7h-2.94V139.67z"/>
</g>
<g id="Group_1264_00000072993082930829114400000016569990116952484015_" transform="translate(1)">
	
		<rect id="Rectangle_481_00000121269080656463216860000001930916511800116649_" x="-0.83" class="st2" width="104.98" height="121.29"/>
	<g id="Group_1263_00000145738055109370625840000013784927587204790173_" transform="translate(30.474 10.386)">
		<line id="Line_101_00000173844594076809007310000012519326546220654474_" class="st3" x1="-9.35" y1="30" x2="14.53" y2="70.69"/>
		<line id="Line_102_00000079455838541075179040000017182802393565160891_" class="st3" x1="53.66" y1="30" x2="29.79" y2="70.69"/>
		
			<line id="Line_103_00000089547048911082067820000011943686228673568150_" class="st3" x1="14.44" y1="70.69" x2="29.79" y2="70.69"/>
		<path id="Path_1122_00000047034850749509835990000001097247802620389032_" class="st3" d="M58.3,102.12H38.8l-0.24-0.8
			L22.23,43.53H22L5.66,101.32l-0.24,0.8h-19.49"/>
		<path id="Path_1123_00000054948720500135348340000016047684650064097944_" class="st3" d="M32.06,19.18l-0.01,9.2
			c-0.41,7.14-3.47,9.91-10.39,9.91h0.77c-6.92,0-9.98-2.77-10.39-9.91l-0.01-9.2"/>
		<path id="Path_1124_00000145038631106967731510000000044343010569678746_" class="st3" d="M31.41,14.6l-0.01-9.2
			C30.98-1.74,27.92-4.51,21-4.51h0.77c-6.92,0-9.98,2.77-10.39,9.91l-0.01,9.2h37.69"/>
	</g>
</g>
<g>
</g>
<g>
</g>
<g>
</g>
<g>
</g>
<g>
</g>
<g>
</g>
</svg>
