<?xml version="1.0" encoding="utf-8"?>
<!-- Generator: Adobe Illustrator 25.4.1, SVG Export Plug-In . SVG Version: 6.00 Build 0)  -->
<svg version="1.1" id="Layer_1" xmlns="http://www.w3.org/2000/svg" xmlns:xlink="http://www.w3.org/1999/xlink" x="0px" y="0px"
	 viewBox="0 0 164.21 243.6" style="enable-background:new 0 0 164.21 243.6;" xml:space="preserve">
<style type="text/css">
	.st0{enable-background:new    ;}
	.st1{fill:#161615;}
	.st2{fill:#EB7C63;}
	.st3{fill:none;stroke:#FFFFFF;stroke-width:4.1004;stroke-miterlimit:10;}
</style>
<g>
	<g class="st0">
		<path class="st1" d="M3.38,212.21H0v-1.2h8.82v1.2H4.73l6.31,19.56l6.01-17.09l-0.86-2.48h-3.38v-1.2h8.79v1.2H17.5l6.87,19.56
			l6.31-19.56h-4.09v-1.2h8.82v1.2h-3.38l-7.06,21.67h-1.13l-6.12-17.31l-6.16,17.31h-1.13L3.38,212.21z"/>
		<path class="st1" d="M34.18,232.67h3.42l8.26-20.47h-3.57v-1.2h5.67l8.71,21.67h3.42v1.2h-8.9v-1.2h4.09l-2.74-6.76H41.69
			l-2.7,6.76h4.09v1.2h-8.9V232.67z M52.05,224.68l-4.92-12.35l-4.96,12.35H52.05z"/>
		<path class="st1" d="M62.57,232.67h3.87v-20.47h-3.87v-1.2H72v1.2h-4.21v20.47h11.64v-4.84h1.28v6.05H62.57V232.67z"/>
		<path class="st1" d="M84.36,232.67h3.87v-20.47h-3.87v-1.2h9.43v1.2h-4.21v20.47h11.64v-4.84h1.28v6.05H84.36V232.67z"/>
		<path class="st1" d="M118.65,226.55v-14.34h-3.87v-1.2h9.09v1.2H120v14.31c0,4.73,3.42,6.57,7.13,6.57c3.83,0,6.98-1.95,6.98-6.57
			v-14.31h-3.87v-1.2h9.01v1.2h-3.87v14.38c0,5.11-3.42,7.74-8.26,7.74C122.1,234.33,118.65,231.47,118.65,226.55z"/>
		<path class="st1" d="M142.8,232.67h3.87v-20.47h-3.87v-1.2h9.76c3.19,0,8.71,1.05,8.71,6.91c0,5.86-5.52,6.91-8.71,6.91h-4.54
			v7.85h4.54v1.2h-9.76V232.67z M148.02,223.62h4.54c4.81,0,7.32-2.1,7.32-5.71s-2.52-5.71-7.32-5.71h-4.54V223.62z"/>
	</g>
	<g id="Group_1264" transform="translate(1)">
		<rect id="Rectangle_481" x="-0.74" class="st2" width="163.95" height="189.42"/>
		<g id="Group_1263" transform="translate(30.474 10.386)">
			<line id="Line_101" class="st3" x1="3.07" y1="52.68" x2="40.36" y2="116.23"/>
			<line id="Line_102" class="st3" x1="101.48" y1="52.68" x2="64.19" y2="116.23"/>
			<line id="Line_103" class="st3" x1="40.22" y1="116.23" x2="64.19" y2="116.23"/>
			<path id="Path_1122" class="st3" d="M108.71,165.31H78.27l-0.37-1.25L52.39,73.81h-0.37l-25.51,90.25l-0.37,1.25H-4.3"/>
			<path id="Path_1123" class="st3" d="M67.73,35.79l-0.02,14.37c-0.64,11.15-5.42,15.47-16.23,15.47h1.2
				c-10.8,0-15.58-4.33-16.23-15.47l-0.02-14.37"/>
			<path id="Path_1124" class="st3" d="M36.44,28.63l0.02-14.37C37.1,3.11,41.88-1.21,52.68-1.21h-1.2
				c10.8,0,15.59,4.33,16.23,15.47l0.02,14.37H8.87"/>
		</g>
	</g>
</g>
<g>
</g>
<g>
</g>
<g>
</g>
<g>
</g>
<g>
</g>
<g>
</g>
</svg>
