<?xml version="1.0" encoding="utf-8"?>
<!-- Generator: Adobe Illustrator 25.4.1, SVG Export Plug-In . SVG Version: 6.00 Build 0)  -->
<svg version="1.1" id="Layer_1" xmlns="http://www.w3.org/2000/svg" xmlns:xlink="http://www.w3.org/1999/xlink" x="0px" y="0px"
	 viewBox="0 0 111.98 112.47" style="enable-background:new 0 0 111.98 112.47;" xml:space="preserve">
<style type="text/css">
	.st0{fill:#3F5B99;}
	.st1{fill:#FFFFFF;}
</style>
<g>
	<path class="st0" d="M59.83,112.18c-17.64,0.03-35.27,0.12-52.91,0.06c-4.84-0.02-6.91-2.33-6.91-7.09C0,72.4,0,39.65,0.01,6.91
		c0-4.85,2.04-6.89,6.94-6.89c32.74-0.02,65.48-0.02,98.23,0c4.7,0,6.78,2.09,6.79,6.73c0.02,32.85,0.02,65.7,0,98.55
		c0,2.57-1,5.14-3.54,6.16c-1.4,0.56-2.93,0.63-4.43,0.69c-6.17,0.22-12.36,0.2-18.53,0.12c-2.09-0.03-6.43,0.72-8.17-0.44
		c-1.76-1.17-1.17-4.1-1.19-5.84c-0.04-3.88-0.06-7.76-0.07-11.64c-0.01-7.62,0.03-15.25,0.14-22.87c0.01-1.04,0.06-2.17,0.75-2.95
		c0.83-0.95,2.25-1.03,3.5-1.03c1.81-0.01,3.61-0.02,5.42-0.03c1.53-0.01,3.26-0.1,4.26-1.26c0.58-0.67,0.79-1.57,0.96-2.44
		c0.48-2.49,0.78-5.01,0.88-7.54c0.04-0.9,0-1.94-0.7-2.52c-0.4-0.33-0.94-0.44-1.46-0.51c-3.7-0.5-12.9,1.77-13.46-3.45
		c-0.34-3.15-0.42-6.32-0.25-9.48c0.09-1.56,0.25-3.15,0.95-4.55c1.07-2.12,3.27-3.48,5.56-4.08c4.79-1.27,10.32,1.02,10.61-5.75
		c0.05-1.19,0.1-2.38-0.11-3.55c-0.9-4.93-6.29-4.55-10.2-4.43c-3.86,0.12-7.81,0.85-11.3,2.54c-6.99,3.38-9.65,9.43-10.25,16.66
		c-0.31,3.78,0.04,7.6-0.15,11.4c-0.16,3.4-1.05,4.26-4.41,4.47c-2.21,0.14-4.43,0.06-6.65,0.1c-2.17,0.04-3.36,1.01-3.4,3.25
		c-0.05,2.53-0.05,5.07,0,7.6c0.05,2.23,1.22,3.22,3.39,3.27c2.32,0.05,4.65-0.06,6.97,0.12c2.97,0.24,4.01,1.14,4.06,4.14
		c0.22,12.57,0.15,25.14,0.04,37.71C61.17,110.34,60.99,111.49,59.83,112.18z"/>
	<path class="st1" d="M59.83,112.18c-0.01-13.52-0.08-27.04,0.02-40.56c0.02-2.3-0.45-3.18-2.92-3c-3.15,0.24-6.34-0.03-9.5,0.09
		c-1.73,0.07-2.43-0.39-2.37-2.26c0.13-4.22,0.1-8.45,0.01-12.67c-0.03-1.68,0.59-2.2,2.22-2.15c3.17,0.1,6.35-0.16,9.5,0.09
		c2.64,0.21,3.07-0.83,3.07-3.2c0-4.95-0.57-9.93,0.39-14.85c2.01-10.24,8.89-16.29,19.27-16.85c4.43-0.24,8.86,0.05,13.28,0.41
		c1.55,0.13,1.91,0.74,1.88,2.15c-0.07,3.7-0.13,7.4,0.02,11.09c0.08,1.95-0.76,2.24-2.42,2.21c-3.05-0.04-6.12-0.25-9.16,0.33
		c-3.65,0.69-5.41,2.48-5.58,6.16c-0.16,3.48,0.01,6.97-0.12,10.45c-0.07,1.79,0.74,2.08,2.27,2.05c4.01-0.07,8.03,0.09,12.04-0.07
		c2.14-0.09,2.49,0.73,2.2,2.6c-0.64,4.07-1.23,8.14-1.64,12.24c-0.17,1.74-0.74,2.34-2.49,2.27c-3.06-0.13-6.14,0.17-9.18-0.1
		c-2.79-0.25-3.24,0.84-3.22,3.36c0.09,13.41-0.01,26.82-0.05,40.24C71.5,112.2,65.66,112.19,59.83,112.18z"/>
</g>
<g>
</g>
<g>
</g>
<g>
</g>
<g>
</g>
<g>
</g>
<g>
</g>
</svg>
