<?xml version="1.0" encoding="utf-8"?>
<!-- Generator: Adobe Illustrator 25.4.1, SVG Export Plug-In . SVG Version: 6.00 Build 0)  -->
<svg version="1.1" id="Layer_1" xmlns="http://www.w3.org/2000/svg" xmlns:xlink="http://www.w3.org/1999/xlink" x="0px" y="0px"
	 viewBox="0 0 60.3 55.34" style="enable-background:new 0 0 60.3 55.34;" xml:space="preserve">
<style type="text/css">
	.st0{fill:#464645;}
</style>
<path id="Path_1145" class="st0" d="M54.99,5.29C51.72,1.93,47.24,0.02,42.55,0c-4.97,0.15-8.83,3.52-12.4,6.61
	c-2.86-2.48-5.88-5.3-9.66-6.19c-5.5-1.3-11.26,0.96-15.17,4.87c-7.09,7.12-7.09,18.64,0,25.76l23.91,23.91
	c0.51,0.51,1.34,0.51,1.86,0l23.91-23.9C62.08,23.92,62.08,12.41,54.99,5.29L54.99,5.29z M53.13,29.19L30.15,52.17L7.17,29.19
	C1.08,23.12,1.07,13.26,7.14,7.17c2.93-2.94,6.91-4.59,11.06-4.58c4,0,8,3.7,11.02,6.74c0.51,0.51,1.34,0.51,1.86,0
	C34.11,6.3,38.11,2.6,42.1,2.6c8.61,0.01,15.58,6.99,15.58,15.6C57.68,22.32,56.04,26.28,53.13,29.19L53.13,29.19z"/>
<g>
</g>
<g>
</g>
<g>
</g>
<g>
</g>
<g>
</g>
<g>
</g>
</svg>
