<svg id="Layer_1" data-name="Layer 1" xmlns="http://www.w3.org/2000/svg" width="66.5" height="60.21" viewBox="0 0 66.5 60.21"><defs><style>.cls-1{fill:#464645;}</style></defs><path id="Path_1145" data-name="Path 1145" class="cls-1" d="M57.81,7.42A17.46,17.46,0,0,0,45.37,2.13c-5,.15-8.83,3.52-12.4,6.61-2.86-2.48-5.88-5.3-9.66-6.19-5.5-1.3-11.26,1-15.17,4.87a18.26,18.26,0,0,0,0,25.76L32.05,57.09a1.32,1.32,0,0,0,1.86,0l23.91-23.9a18.28,18.28,0,0,0,0-25.77ZM56,31.32l-23,23-23-23A15.58,15.58,0,0,1,21,4.72c4,0,8,3.7,11,6.74a1.32,1.32,0,0,0,1.86,0c3-3,7-6.73,11-6.73A15.58,15.58,0,0,1,56,31.32Z"/></svg>