<?xml version="1.0" encoding="utf-8"?>
<!-- Generator: Adobe Illustrator 25.4.1, SVG Export Plug-In . SVG Version: 6.00 Build 0)  -->
<svg version="1.1" id="Layer_1" xmlns="http://www.w3.org/2000/svg" xmlns:xlink="http://www.w3.org/1999/xlink" x="0px" y="0px"
	 viewBox="0 0 64.69 55.38" style="enable-background:new 0 0 64.69 55.38;" xml:space="preserve">
<style type="text/css">
	.st0{fill:#363535;}
</style>
<path id="Path_1139" class="st0" d="M41.86,0h19.36c0.4-0.01,0.8,0.04,1.19,0.12c1.56,0.33,2.55,1.87,2.22,3.43c0,0,0,0,0,0
	c-0.03,0.15-0.07,0.29-0.13,0.43c-0.91,3.09-1.88,6.15-2.83,9.23c-1.06,3.44-2.12,6.88-3.18,10.32c-0.86,2.39-3.08,4.02-5.62,4.12
	c-5.54-0.01-11.06,0.01-16.6,0c-2.05,0.07-4.11,0.04-6.16-0.1c-2.3-0.16-4.25-1.73-4.91-3.94c-1.27-3.82-2.39-7.68-3.57-11.52
	C20.82,9.45,20,6.8,19.21,4.15C18.49,1.75,19.8,0,22.3,0C28.82,0,35.34,0,41.86,0z"/>
<path id="Path_1140" class="st0" d="M40.92,39.28H28.68c-6.35-0.06-12.02-3.99-14.3-9.92c-0.78-2.16-1.29-4.42-1.87-6.64
	c-0.36-1.77-1.18-3.42-2.37-4.79C8.39,16,5.89,14.9,3.28,14.92C2.02,15,0.85,14.29,0.33,13.14c-0.77-1.57-0.12-3.48,1.45-4.25
	c0.41-0.2,0.85-0.31,1.31-0.32c6.64-0.15,12.63,3.98,14.86,10.24c0.84,2.44,1.42,4.97,2.07,7.47c1.06,3.57,4.16,6.16,7.86,6.57
	c2.63,0.13,5.28,0.09,7.92,0.09c6.05,0.02,12.1,0.03,18.15,0.03c1.77-0.1,3.28,1.25,3.38,3.01c0.1,1.77-1.25,3.28-3.01,3.38l0,0
	c-0.08,0-0.15,0-0.23,0c-4.4,0.01-8.79,0-13.18,0L40.92,39.28z"/>
<path id="Path_1141" class="st0" d="M30.79,49.03c-0.01,3.52-2.88,6.36-6.4,6.35c-3.52-0.01-6.36-2.88-6.35-6.4
	c0.01-3.52,2.88-6.36,6.4-6.35h0.07C28,42.67,30.81,45.53,30.79,49.03z"/>
<path id="Path_1142" class="st0" d="M61.58,49c0,3.52-2.85,6.38-6.37,6.38c-3.52,0-6.38-2.85-6.38-6.37c0-3.52,2.85-6.38,6.37-6.38
	h0.02C58.73,42.64,61.58,45.49,61.58,49z"/>
<g>
</g>
<g>
</g>
<g>
</g>
<g>
</g>
<g>
</g>
<g>
</g>
</svg>
