<?xml version="1.0" encoding="utf-8"?>
<!-- Generator: Adobe Illustrator 25.4.1, SVG Export Plug-In . SVG Version: 6.00 Build 0)  -->
<svg version="1.1" id="Lag_1" xmlns="http://www.w3.org/2000/svg" xmlns:xlink="http://www.w3.org/1999/xlink" x="0px" y="0px"
	 viewBox="0 0 24 24" style="enable-background:new 0 0 24 24;" xml:space="preserve">
<style type="text/css">
	.st0{fill:none;stroke:#000000;stroke-width:2;stroke-linecap:round;stroke-linejoin:round;}
</style>
<path class="st0" d="M-81,2h10c2.8,0,5,2.2,5,5v10c0,2.8-2.2,5-5,5h-10c-2.8,0-5-2.2-5-5V7C-86,4.2-83.8,2-81,2z"/>
<path class="st0" d="M-72,11.4c0.3,2.2-1.2,4.2-3.4,4.5c-2.2,0.3-4.2-1.2-4.5-3.4s1.2-4.2,3.4-4.5c0.4-0.1,0.8-0.1,1.2,0
	C-73.6,8.3-72.3,9.6-72,11.4z"/>
<line class="st0" x1="-70.5" y1="6.5" x2="-70.5" y2="6.5"/>
<path class="st0" d="M-37,2h10c2.8,0,5,2.2,5,5v10c0,2.8-2.2,5-5,5h-10c-2.8,0-5-2.2-5-5V7C-42,4.2-39.8,2-37,2z"/>
<path class="st0" d="M7,2h10c2.8,0,5,2.2,5,5v10c0,2.8-2.2,5-5,5H7c-2.8,0-5-2.2-5-5V7C2,4.2,4.2,2,7,2z"/>
<g id="kasse1">
	<g id="pyramider">
	</g>
	<path d="M-34.7,14.1h-1.5v-3h1.5v-0.9c0-2,1.5-4.1,4.6-4.1c0.8,0,1.5,0.1,2.3,0.3v3c-0.5-0.2-1-0.2-1.5-0.2c-1.1,0-1.7,0.4-1.7,1.2
		v0.6h2.9v3H-31V22h-3.7V14.1z"/>
</g>
<path d="M5.7,6.4c0,0,2.2,3.3,6.2,3.4c0,0-0.5-2.7,1.9-3.9c0,0,1.9-0.7,3.3,0.8c0,0,1.1-0.2,1.9-0.8c0,0-0.1,0.9-1.2,1.8
	c0,0,0.6,0.1,1.6-0.4c0,0-0.7,1.2-1.5,1.7c0,0,0.3,2.8-1.7,6.2c0,0-1.7,3-5.9,3.7c0,0-3.2,0.3-5.6-1.5c0,0,2.3,0.4,4.4-1.3
	c0,0-2-0.1-2.7-2.3c0,0,0.6,0.1,1.3-0.1c0,0-2.2-0.5-2.3-3.2c0,0,0.7,0.4,1.3,0.4C6.5,10.8,4.4,8.5,5.7,6.4z"/>
</svg>
