<svg id="Layer_1" data-name="Layer 1" xmlns="http://www.w3.org/2000/svg" width="164.21" height="243.6" viewBox="0 0 164.21 243.6"><defs><style>.cls-1{isolation:isolate;}.cls-2{fill:#161615;}.cls-3,.cls-4{fill:none;stroke:#fff;stroke-miterlimit:10;}.cls-4{stroke-width:4.1px;}</style></defs><g class="cls-1"><path class="cls-2" d="M3.38,212.21H0V211H8.82v1.2H4.73L11,231.77l6-17.09-.86-2.48H12.81V211H21.6v1.2H17.5l6.87,19.56,6.31-19.56H26.59V211h8.82v1.2H32L25,233.87H23.84l-6.12-17.31-6.16,17.31H10.43Z"/><path class="cls-2" d="M34.18,232.67H37.6l8.26-20.47H42.29V211H48l8.71,21.67h3.42v1.2h-8.9v-1.2h4.09l-2.74-6.76H41.69L39,232.67h4.09v1.2h-8.9Zm17.87-8-4.92-12.35-5,12.35Z"/><path class="cls-2" d="M62.57,232.67h3.87V212.2H62.57V211H72v1.2H67.79v20.47H79.43v-4.84h1.28v6H62.57Z"/><path class="cls-2" d="M84.36,232.67h3.87V212.2H84.36V211h9.43v1.2H89.58v20.47h11.64v-4.84h1.28v6H84.36Z"/><path class="cls-2" d="M118.65,226.55V212.21h-3.87V211h9.09v1.2H120v14.31c0,4.73,3.42,6.57,7.13,6.57s7-2,7-6.57V212.21h-3.87V211h9v1.2h-3.87v14.38c0,5.11-3.42,7.74-8.26,7.74C122.1,234.33,118.65,231.47,118.65,226.55Z"/><path class="cls-2" d="M142.8,232.67h3.87V212.2H142.8V211h9.76c3.19,0,8.71,1.05,8.71,6.91s-5.52,6.91-8.71,6.91H148v7.85h4.54v1.2H142.8Zm5.22-9h4.54c4.81,0,7.32-2.1,7.32-5.71s-2.52-5.71-7.32-5.71H148Z"/></g><g id="Group_1264" data-name="Group 1264"><rect id="Rectangle_481" data-name="Rectangle 481" class="cls-3" x="0.26" width="163.95" height="189.42"/><g id="Group_1263" data-name="Group 1263"><line id="Line_101" data-name="Line 101" class="cls-4" x1="34.54" y1="63.07" x2="71.83" y2="126.62"/><line id="Line_102" data-name="Line 102" class="cls-4" x1="132.95" y1="63.07" x2="95.66" y2="126.62"/><line id="Line_103" data-name="Line 103" class="cls-4" x1="71.69" y1="126.62" x2="95.66" y2="126.62"/><path id="Path_1122" data-name="Path 1122" class="cls-4" d="M140.18,175.7H109.74l-.37-1.25L83.86,84.2h-.37L58,174.45l-.37,1.25H27.17"/><path id="Path_1123" data-name="Path 1123" class="cls-4" d="M99.2,46.18l0,14.37C98.54,71.7,93.76,76,83,76h1.2c-10.8,0-15.58-4.33-16.23-15.47l0-14.37"/><path id="Path_1124" data-name="Path 1124" class="cls-4" d="M67.91,39l0-14.37C68.57,13.5,73.35,9.18,84.15,9.18H83c10.8,0,15.59,4.33,16.23,15.47L99.2,39H40.34"/></g></g></svg>