<?xml version="1.0" encoding="utf-8"?>
<!-- Generator: Adobe Illustrator 25.4.1, SVG Export Plug-In . SVG Version: 6.00 Build 0)  -->
<svg version="1.1" id="Layer_1" xmlns="http://www.w3.org/2000/svg" xmlns:xlink="http://www.w3.org/1999/xlink" x="0px" y="0px"
	 viewBox="0 0 389.51 588.08" style="enable-background:new 0 0 389.51 588.08;" xml:space="preserve">
<style type="text/css">
	.st0{fill:none;stroke:#EDEDED;stroke-width:14.1321;stroke-miterlimit:10;}
</style>
<g id="Group_1263" transform="translate(30.474 10.386)">
	<line id="Line_101" class="st0" x1="-5.06" y1="182.43" x2="123.46" y2="401.46"/>
	<line id="Line_102" class="st0" x1="334.1" y1="182.43" x2="205.58" y2="401.46"/>
	<line id="Line_103" class="st0" x1="122.98" y1="401.46" x2="205.57" y2="401.46"/>
	<path id="Path_1122" class="st0" d="M359.04,570.62H254.11l-1.28-4.32l-87.91-311.04h-1.27L75.74,566.31l-1.28,4.32H-30.47"/>
	<path id="Path_1123" class="st0" d="M217.79,124.21l-0.06,49.53c-2.21,38.41-18.7,53.32-55.93,53.32h4.12
		c-37.23,0-53.71-14.92-55.93-53.32l-0.06-49.53"/>
	<path id="Path_1124" class="st0" d="M109.94,99.53L110,50.01c2.22-38.41,18.7-53.33,55.93-53.33h-4.12
		c37.23,0,53.72,14.92,55.93,53.33l0.06,49.53H14.92"/>
</g>
<g>
</g>
<g>
</g>
<g>
</g>
<g>
</g>
<g>
</g>
<g>
</g>
</svg>
