<?xml version="1.0" encoding="utf-8"?>
<!-- Generator: Adobe Illustrator 25.4.1, SVG Export Plug-In . SVG Version: 6.00 Build 0)  -->
<svg version="1.1" id="Layer_1" xmlns="http://www.w3.org/2000/svg" xmlns:xlink="http://www.w3.org/1999/xlink" x="0px" y="0px"
	 viewBox="0 0 55.37 55.36" style="enable-background:new 0 0 55.37 55.36;" xml:space="preserve">
<style type="text/css">
	.st0{fill:#363535;}
</style>
<path id="Path_1138" class="st0" d="M32.15,38.4c-9.25,5.81-21.4,3.61-28.02-5.08c-6.88-9.25-4.96-22.32,4.28-29.2
	c9.25-6.88,22.32-4.96,29.2,4.28c5.19,6.97,5.51,16.43,0.81,23.74c1.13,0.95,2.27,1.92,3.43,2.88c3.8,3.16,7.6,6.33,11.41,9.49
	c2.78,2.34,2.82,6.27,0.11,8.95c-2.21,2.39-5.94,2.53-8.33,0.32c-0.18-0.17-0.36-0.35-0.52-0.55C40.4,48.32,36.3,43.39,32.15,38.4z
	 M20.77,37.14c9.05-0.04,16.35-7.41,16.31-16.45S29.68,4.34,20.63,4.38S4.28,11.78,4.32,20.83c0.04,8.99,7.32,16.27,16.31,16.31
	H20.77z"/>
<g>
</g>
<g>
</g>
<g>
</g>
<g>
</g>
<g>
</g>
<g>
</g>
</svg>
