<svg id="Lag_1" data-name="Lag 1" xmlns="http://www.w3.org/2000/svg" width="24" height="24" viewBox="0 0 24 24"><defs><style>.cls-1{fill:none;stroke:#000;stroke-linecap:round;stroke-linejoin:round;stroke-width:2px;}</style></defs><rect class="cls-1" x="2" y="2" width="20" height="20" rx="5"/><path d="M5.67,6.4a8.29,8.29,0,0,0,6.16,3.42A3.6,3.6,0,0,1,13.77,6,3,3,0,0,1,17,6.81,4.64,4.64,0,0,0,18.94,6a3.35,3.35,0,0,1-1.22,1.77,3.34,3.34,0,0,0,1.65-.44,6.37,6.37,0,0,1-1.5,1.68,10.56,10.56,0,0,1-1.72,6.2,8.59,8.59,0,0,1-5.92,3.69,9.33,9.33,0,0,1-5.6-1.48A5.85,5.85,0,0,0,9,16.13a3.23,3.23,0,0,1-2.74-2.31,3,3,0,0,0,1.28-.12,3.29,3.29,0,0,1-2.32-3.25,3.5,3.5,0,0,0,1.3.37S4.36,8.51,5.67,6.4Z"/></svg>